<?xml version="1.0" encoding="UTF-8" standalone="no"?>
<svg
   xmlns:dc="http://purl.org/dc/elements/1.1/"
   xmlns:cc="http://creativecommons.org/ns#"
   xmlns:rdf="http://www.w3.org/1999/02/22-rdf-syntax-ns#"
   xmlns:svg="http://www.w3.org/2000/svg"
   xmlns="http://www.w3.org/2000/svg"
   xmlns:sodipodi="http://sodipodi.sourceforge.net/DTD/sodipodi-0.dtd"
   xmlns:inkscape="http://www.inkscape.org/namespaces/inkscape"
   version="1.1"
   id="svg2"
   xml:space="preserve"
   width="639.19202"
   height="151.17999"
   viewBox="0 0 639.19202 151.17999"
   sodipodi:docname="Hanwha Corporation_RGB_4_EH.ai"><metadata
     id="metadata8"><rdf:RDF><cc:Work
         rdf:about=""><dc:format>image/svg+xml</dc:format><dc:type
           rdf:resource="http://purl.org/dc/dcmitype/StillImage" /></cc:Work></rdf:RDF></metadata><defs
     id="defs6"><clipPath
       clipPathUnits="userSpaceOnUse"
       id="clipPath18"><path
         d="M 0,113.385 H 479.394 V 0 H 0 Z"
         id="path16" /></clipPath></defs><sodipodi:namedview
     pagecolor="#ffffff"
     bordercolor="#666666"
     borderopacity="1"
     objecttolerance="10"
     gridtolerance="10"
     guidetolerance="10"
     inkscape:pageopacity="0"
     inkscape:pageshadow="2"
     inkscape:window-width="640"
     inkscape:window-height="480"
     id="namedview4" /><g
     id="g10"
     inkscape:groupmode="layer"
     inkscape:label="Hanwha Corporation_RGB_4_EH"
     transform="matrix(1.3333333,0,0,-1.3333333,0,151.18)"><g
       id="g12"><g
         id="g14"
         clip-path="url(#clipPath18)"><g
           id="g20"
           transform="translate(90.7974,53.6914)"><path
             d="M 0,0 C -0.934,9.14 -11.339,16.626 -23.239,16.726 -35.146,16.821 -44.032,9.491 -43.098,0.355 -42.164,-8.783 -31.759,-16.273 -19.857,-16.373 -7.955,-16.467 0.938,-9.141 0,0 m -39.367,2.285 c -0.81,7.372 6.914,13.286 17.253,13.204 10.339,-0.082 19.382,-6.119 20.191,-13.481 0.809,-7.377 -6.909,-13.281 -17.251,-13.199 -10.339,0.072 -19.382,6.113 -20.193,13.476"
             style="fill:#fbb584;fill-opacity:1;fill-rule:nonzero;stroke:none"
             id="path22" /></g><g
           id="g24"
           transform="translate(51.1128,57.2363)"><path
             d="m 0,0 c -6.814,-7.115 -6.924,-18.068 -0.25,-24.461 6.674,-6.387 17.614,-5.797 24.425,1.322 6.817,7.118 6.929,18.071 0.252,24.461 C 17.754,7.71 6.815,7.12 0,0 m 21.719,-20.098 c -5.862,-6.132 -15.273,-6.636 -21.016,-1.136 -5.744,5.496 -5.646,14.918 0.22,21.041 5.863,6.124 15.275,6.631 21.015,1.136 5.741,-5.5 5.645,-14.922 -0.219,-21.041"
             style="fill:#f89b6c;fill-opacity:1;fill-rule:nonzero;stroke:none"
             id="path26" /></g><g
           id="g28"
           transform="translate(40.4126,76.2354)"><path
             d="m 0,0 c -12.649,-10.014 -15.868,-24.528 -7.194,-32.409 8.676,-7.887 25.964,-6.156 38.615,3.857 12.65,10.012 15.871,24.523 7.193,32.407 C 29.933,11.74 12.647,10.018 0,0 M 11.323,3.928 C 23.517,8.494 35.571,3.873 38.251,-6.395 40.933,-16.669 33.221,-28.7 21.029,-33.265 8.836,-37.839 -3.222,-33.214 -5.899,-22.944 -8.583,-12.678 -0.867,-0.646 11.323,3.928"
             style="fill:#f37321;fill-opacity:1;fill-rule:nonzero;stroke:none"
             id="path30" /></g><g
           id="g32"
           transform="translate(119.9155,68.0527)"><path
             d="m 0,0 v -22.673 h -3.552 v 11.958 H -16.99 v -11.958 h -3.552 V 0 h 3.552 V -7.607 H -3.552 V 0 Z"
             style="fill:#000000;fill-opacity:1;fill-rule:nonzero;stroke:none"
             id="path34" /></g><g
           id="g36"
           transform="translate(134.9229,53.5786)"><path
             d="M 0,0 H -5.624 C -7.44,0 -8.347,-0.77 -8.347,-2.309 v -0.563 c 0,-1.519 0.907,-2.278 2.723,-2.278 H 0 c 1.854,0 2.782,0.759 2.782,2.278 v 0.563 C 2.782,-0.77 1.854,0 0,0 m -6.482,-8.199 c -1.658,0 -2.971,0.464 -3.937,1.391 -0.987,0.927 -1.48,2.121 -1.48,3.581 v 1.214 c 0,1.48 0.493,2.683 1.48,3.611 0.966,0.947 2.279,1.421 3.937,1.421 h 9.264 v 0.089 c 0,1.815 -0.996,2.723 -2.989,2.723 H -10.508 V 8.85 H -0.266 C 1.865,8.85 3.493,8.307 4.618,7.222 5.762,6.176 6.334,4.657 6.334,2.664 V -3.345 C 6.334,-4.884 5.812,-6.098 4.766,-6.986 3.818,-7.794 2.486,-8.199 0.77,-8.199 Z"
             style="fill:#000000;fill-opacity:1;fill-rule:nonzero;stroke:none"
             id="path38" /></g><g
           id="g40"
           transform="translate(151.646,62.4287)"><path
             d="m 0,0 h 3.493 c 2.21,0 3.947,-0.642 5.21,-1.924 1.262,-1.283 1.894,-3.068 1.894,-5.357 v -9.768 H 7.045 v 9.59 c 0,1.421 -0.276,2.457 -0.829,3.108 -0.691,0.848 -1.687,1.273 -2.989,1.273 H 0.208 c -1.264,0 -2.25,-0.425 -2.96,-1.273 -0.514,-0.651 -0.77,-1.687 -0.77,-3.108 v -9.59 h -3.552 v 9.768 c 0,2.289 0.631,4.074 1.894,5.357 C -3.917,-0.642 -2.19,0 0,0"
             style="fill:#000000;fill-opacity:1;fill-rule:nonzero;stroke:none"
             id="path42" /></g><g
           id="g44"
           transform="translate(178.6118,47.6582)"><path
             d="m 0,0 c -1.263,-1.519 -2.832,-2.279 -4.706,-2.279 h -2.19 c -1.974,0 -3.543,0.622 -4.707,1.865 -1.105,1.164 -1.658,2.812 -1.658,4.943 v 10.242 h 3.523 V 4.5 c 0,-1.244 0.266,-2.151 0.799,-2.724 C -8.328,1.125 -7.528,0.8 -6.542,0.8 h 1.54 c 1.006,0 1.815,0.325 2.427,0.976 0.552,0.573 0.829,1.48 0.829,2.724 V 14.771 H 1.747 V 4.5 C 1.747,3.256 2.013,2.349 2.546,1.776 3.157,1.125 3.957,0.8 4.943,0.8 h 1.539 c 1.007,0 1.816,0.325 2.428,0.976 0.552,0.573 0.829,1.48 0.829,2.724 v 10.271 h 3.522 V 4.529 C 13.261,2.398 12.688,0.75 11.544,-0.414 10.379,-1.657 8.801,-2.279 6.808,-2.279 H 4.647 C 2.812,-2.279 1.263,-1.519 0,0"
             style="fill:#000000;fill-opacity:1;fill-rule:nonzero;stroke:none"
             id="path46" /></g><g
           id="g48"
           transform="translate(202.292,59.3506)"><path
             d="M 0,0 C -1.263,0 -2.25,-0.425 -2.96,-1.273 -3.473,-1.924 -3.729,-2.96 -3.729,-4.381 v -9.59 H -7.281 V 8.762 h 3.552 v -6.72 c 1.025,0.691 2.2,1.036 3.522,1.036 h 3.493 c 2.21,0 3.946,-0.641 5.209,-1.924 1.263,-1.283 1.895,-3.068 1.895,-5.357 v -9.768 H 6.838 v 9.59 c 0,1.421 -0.277,2.457 -0.829,3.108 C 5.318,-0.425 4.322,0 3.02,0 Z"
             style="fill:#000000;fill-opacity:1;fill-rule:nonzero;stroke:none"
             id="path50" /></g><g
           id="g52"
           transform="translate(227.5112,53.5786)"><path
             d="M 0,0 H -5.624 C -7.44,0 -8.347,-0.77 -8.347,-2.309 v -0.563 c 0,-1.519 0.907,-2.278 2.723,-2.278 H 0 c 1.854,0 2.782,0.759 2.782,2.278 v 0.563 C 2.782,-0.77 1.854,0 0,0 m -6.482,-8.199 c -1.658,0 -2.971,0.464 -3.937,1.391 -0.987,0.927 -1.48,2.121 -1.48,3.581 v 1.214 c 0,1.48 0.493,2.683 1.48,3.611 0.966,0.947 2.279,1.421 3.937,1.421 h 9.264 v 0.089 c 0,1.815 -0.996,2.723 -2.989,2.723 H -10.508 V 8.85 H -0.266 C 1.865,8.85 3.493,8.307 4.618,7.222 5.762,6.176 6.334,4.657 6.334,2.664 V -3.345 C 6.334,-4.884 5.812,-6.098 4.766,-6.986 3.818,-7.794 2.486,-8.199 0.77,-8.199 Z"
             style="fill:#000000;fill-opacity:1;fill-rule:nonzero;stroke:none"
             id="path54" /></g><g
           id="g56"
           transform="translate(245.9219,53.8154)"><path
             d="m 0,0 v 5.742 c 0,2.526 0.799,4.598 2.398,6.216 1.46,1.52 3.571,2.279 6.334,2.279 H 20.868 V 11.159 H 8.88 C 7.203,11.159 5.861,10.606 4.854,9.501 3.986,8.495 3.562,7.192 3.582,5.594 V 0.178 C 3.562,-1.401 3.986,-2.693 4.854,-3.7 5.861,-4.806 7.203,-5.357 8.88,-5.357 H 20.868 V -8.436 H 8.732 c -2.763,0 -4.874,0.75 -6.334,2.249 C 0.799,-4.549 0,-2.486 0,0"
             style="fill:#000000;fill-opacity:1;fill-rule:nonzero;stroke:none"
             id="path58" /></g><g
           id="g60"
           transform="translate(281.7085,48.458)"><path
             d="m 0,0 c 1.263,0 2.19,0.385 2.782,1.154 0.493,0.652 0.74,1.608 0.74,2.871 v 2.783 c 0,1.282 -0.247,2.25 -0.74,2.9 C 2.19,10.498 1.263,10.893 0,10.893 h -4.736 c -1.243,0 -2.161,-0.395 -2.753,-1.185 -0.473,-0.65 -0.71,-1.618 -0.71,-2.9 V 4.025 c 0,-1.263 0.237,-2.219 0.71,-2.871 C -6.897,0.385 -5.979,0 -4.736,0 Z m 0.266,-3.079 h -5.239 c -2.111,0.02 -3.769,0.632 -4.973,1.836 -1.203,1.183 -1.805,2.881 -1.805,5.091 v 3.167 c 0,2.23 0.602,3.937 1.805,5.121 1.204,1.203 2.862,1.815 4.973,1.835 H 0.266 C 2.397,13.951 4.065,13.339 5.269,12.136 6.472,10.952 7.074,9.245 7.074,7.015 V 3.848 C 7.074,1.638 6.472,-0.06 5.269,-1.243 4.065,-2.447 2.397,-3.059 0.266,-3.079"
             style="fill:#000000;fill-opacity:1;fill-rule:nonzero;stroke:none"
             id="path62" /></g><g
           id="g64"
           transform="translate(291.8608,57.1006)"><path
             d="m 0,0 c 0,1.678 0.542,3 1.628,3.967 0.987,0.907 2.536,1.361 4.647,1.361 h 6.572 V 2.25 H 6.512 c -1.953,0 -2.93,-0.898 -2.93,-2.693 V -11.721 H 0 Z"
             style="fill:#000000;fill-opacity:1;fill-rule:nonzero;stroke:none"
             id="path66" /></g><g
           id="g68"
           transform="translate(310.5977,55.2656)"><path
             d="m 0,0 v -6.808 h 7.637 c 1.243,0 2.17,0.385 2.782,1.155 0.474,0.651 0.71,1.608 0.71,2.871 V 0 c 0,1.283 -0.236,2.25 -0.71,2.901 C 9.807,3.69 8.88,4.085 7.637,4.085 H 3.463 C 2.22,4.085 1.302,3.69 0.71,2.901 0.237,2.25 0,1.283 0,0 m -3.552,0.207 c 0,2.23 0.602,3.937 1.805,5.121 1.204,1.203 2.862,1.816 4.973,1.835 H 7.874 C 9.985,7.144 11.643,6.531 12.846,5.328 14.07,4.144 14.682,2.437 14.682,0.207 V -2.96 c 0,-2.21 -0.612,-3.907 -1.836,-5.091 C 11.643,-9.254 9.995,-9.866 7.903,-9.886 H 0 v -5.861 h -3.552 z"
             style="fill:#000000;fill-opacity:1;fill-rule:nonzero;stroke:none"
             id="path70" /></g><g
           id="g72"
           transform="translate(340.1084,48.458)"><path
             d="m 0,0 c 1.263,0 2.19,0.385 2.782,1.154 0.493,0.652 0.74,1.608 0.74,2.871 v 2.783 c 0,1.282 -0.247,2.25 -0.74,2.9 C 2.19,10.498 1.263,10.893 0,10.893 h -4.737 c -1.242,0 -2.16,-0.395 -2.752,-1.185 -0.473,-0.65 -0.71,-1.618 -0.71,-2.9 V 4.025 c 0,-1.263 0.237,-2.219 0.71,-2.871 C -6.897,0.385 -5.979,0 -4.737,0 Z m 0.266,-3.079 h -5.239 c -2.111,0.02 -3.769,0.632 -4.973,1.836 -1.203,1.183 -1.805,2.881 -1.805,5.091 v 3.167 c 0,2.23 0.602,3.937 1.805,5.121 1.204,1.203 2.862,1.815 4.973,1.835 H 0.266 C 2.397,13.951 4.065,13.339 5.269,12.136 6.472,10.952 7.074,9.245 7.074,7.015 V 3.848 C 7.074,1.638 6.472,-0.06 5.269,-1.243 4.065,-2.447 2.397,-3.059 0.266,-3.079"
             style="fill:#000000;fill-opacity:1;fill-rule:nonzero;stroke:none"
             id="path74" /></g><g
           id="g76"
           transform="translate(350.2607,57.1006)"><path
             d="m 0,0 c 0,1.678 0.542,3 1.628,3.967 0.987,0.907 2.536,1.361 4.647,1.361 h 6.572 V 2.25 H 6.512 c -1.953,0 -2.93,-0.898 -2.93,-2.693 V -11.721 H 0 Z"
             style="fill:#000000;fill-opacity:1;fill-rule:nonzero;stroke:none"
             id="path78" /></g><g
           id="g80"
           transform="translate(377.167,53.5786)"><path
             d="M 0,0 H -5.624 C -7.44,0 -8.347,-0.77 -8.347,-2.309 v -0.563 c 0,-1.519 0.907,-2.278 2.723,-2.278 H 0 c 1.854,0 2.782,0.759 2.782,2.278 v 0.563 C 2.782,-0.77 1.854,0 0,0 m -6.482,-8.199 c -1.658,0 -2.971,0.464 -3.937,1.391 -0.987,0.927 -1.48,2.121 -1.48,3.581 v 1.214 c 0,1.48 0.493,2.683 1.48,3.611 0.966,0.947 2.279,1.421 3.937,1.421 h 9.264 v 0.089 c 0,1.815 -0.996,2.723 -2.989,2.723 H -10.508 V 8.85 H -0.266 C 1.865,8.85 3.493,8.307 4.618,7.222 5.762,6.176 6.334,4.657 6.334,2.664 V -3.345 C 6.334,-4.884 5.812,-6.098 4.766,-6.986 3.818,-7.794 2.486,-8.199 0.77,-8.199 Z"
             style="fill:#000000;fill-opacity:1;fill-rule:nonzero;stroke:none"
             id="path82" /></g><g
           id="g84"
           transform="translate(394.8379,62.4287)"><path
             d="M 0,0 H 5.328 V -2.989 H 0 v -14.06 h -3.582 v 14.06 H -8.91 V 0 h 5.328 v 3.848 l 3.582,0 z"
             style="fill:#000000;fill-opacity:1;fill-rule:nonzero;stroke:none"
             id="path86" /></g><path
           d="m 402.8,62.429 h 3.611 V 45.38 H 402.8 Z m 4.144,3.433 c 0,-0.651 -0.232,-1.174 -0.695,-1.568 -0.464,-0.396 -1.021,-0.592 -1.673,-0.592 -0.632,0 -1.169,0.196 -1.614,0.592 -0.443,0.394 -0.666,0.917 -0.666,1.568 0,0.652 0.223,1.18 0.666,1.584 0.445,0.405 0.982,0.607 1.614,0.607 0.652,0 1.209,-0.202 1.673,-0.607 0.463,-0.404 0.695,-0.932 0.695,-1.584"
           style="fill:#000000;fill-opacity:1;fill-rule:nonzero;stroke:none"
           id="path88" /><g
           id="g90"
           transform="translate(421.5962,48.458)"><path
             d="m 0,0 c 1.263,0 2.19,0.385 2.782,1.154 0.493,0.652 0.74,1.608 0.74,2.871 v 2.783 c 0,1.282 -0.247,2.25 -0.74,2.9 C 2.19,10.498 1.263,10.893 0,10.893 h -4.736 c -1.243,0 -2.161,-0.395 -2.753,-1.185 -0.473,-0.65 -0.71,-1.618 -0.71,-2.9 V 4.025 c 0,-1.263 0.237,-2.219 0.71,-2.871 C -6.897,0.385 -5.979,0 -4.736,0 Z m 0.266,-3.079 h -5.239 c -2.111,0.02 -3.769,0.632 -4.973,1.836 -1.203,1.183 -1.805,2.881 -1.805,5.091 v 3.167 c 0,2.23 0.602,3.937 1.805,5.121 1.204,1.203 2.862,1.815 4.973,1.835 H 0.266 C 2.397,13.951 4.065,13.339 5.269,12.136 6.472,10.952 7.074,9.245 7.074,7.015 V 3.848 C 7.074,1.638 6.472,-0.06 5.269,-1.243 4.065,-2.447 2.397,-3.059 0.266,-3.079"
             style="fill:#000000;fill-opacity:1;fill-rule:nonzero;stroke:none"
             id="path92" /></g><g
           id="g94"
           transform="translate(438.8823,62.4287)"><path
             d="m 0,0 h 3.493 c 2.21,0 3.946,-0.642 5.209,-1.924 1.263,-1.283 1.895,-3.068 1.895,-5.357 v -9.768 H 7.045 v 9.59 c 0,1.421 -0.277,2.457 -0.829,3.108 -0.692,0.848 -1.687,1.273 -2.989,1.273 h -3.02 c -1.263,0 -2.249,-0.425 -2.96,-1.273 -0.513,-0.651 -0.769,-1.687 -0.769,-3.108 v -9.59 h -3.552 v 9.768 c 0,2.289 0.631,4.074 1.894,5.357 C -3.918,-0.642 -2.19,0 0,0"
             style="fill:#000000;fill-opacity:1;fill-rule:nonzero;stroke:none"
             id="path96" /></g></g></g></g></svg>
